<svg width="22" height="16" viewBox="0 0 22 16" fill="none" xmlns="http://www.w3.org/2000/svg">
<path d="M20.8567 9C21.409 9 21.8567 8.55228 21.8567 8C21.8567 7.44772 21.409 7 20.8567 7L20.8567 9ZM0.859263 7.29289C0.468739 7.68342 0.468739 8.31658 0.859262 8.70711L7.22322 15.0711C7.61375 15.4616 8.24691 15.4616 8.63744 15.0711C9.02796 14.6805 9.02796 14.0474 8.63744 13.6569L2.98058 8L8.63744 2.34314C9.02796 1.95262 9.02796 1.31946 8.63744 0.928931C8.24691 0.538407 7.61375 0.538407 7.22323 0.928931L0.859263 7.29289ZM20.8567 7L1.56637 7L1.56637 9L20.8567 9L20.8567 7Z" fill="#1E1B1B"/>
</svg>
