<svg width="22" height="16" viewBox="0 0 22 16" fill="none" xmlns="http://www.w3.org/2000/svg">
<path d="M1.56641 7C1.01412 7 0.566406 7.44772 0.566406 8C0.566406 8.55228 1.01412 9 1.56641 9V7ZM21.5638 8.70711C21.9544 8.31658 21.9544 7.68342 21.5638 7.29289L15.1999 0.928932C14.8093 0.538408 14.1762 0.538408 13.7857 0.928932C13.3951 1.31946 13.3951 1.95262 13.7857 2.34315L19.4425 8L13.7857 13.6569C13.3951 14.0474 13.3951 14.6805 13.7857 15.0711C14.1762 15.4616 14.8093 15.4616 15.1999 15.0711L21.5638 8.70711ZM1.56641 9H20.8567V7H1.56641V9Z" fill="#1E1B1B"/>
</svg>
