<svg width="185" height="36" viewBox="0 0 185 36" fill="none" xmlns="http://www.w3.org/2000/svg">
<path d="M15.366 4.82936C16.503 2.74454 19.4965 2.74453 20.6335 4.82936L22.9254 9.03174C23.3569 9.82292 24.1212 10.3782 25.007 10.5441L29.7119 11.4252C32.046 11.8623 32.9711 14.7093 31.3397 16.4349L28.0512 19.9132C27.4321 20.5681 27.1401 21.4666 27.2561 22.3603L27.872 27.1072C28.1776 29.4621 25.7558 31.2217 23.6105 30.2034L19.2862 28.1507C18.4721 27.7642 17.5274 27.7642 16.7133 28.1507L12.389 30.2034C10.2437 31.2217 7.82189 29.4621 8.12747 27.1072L8.74343 22.3603C8.85939 21.4666 8.56746 20.5681 7.94833 19.9132L4.65985 16.4349C3.02842 14.7093 3.95348 11.8623 6.28761 11.4252L10.9925 10.5441C11.8783 10.3782 12.6426 9.82293 13.0741 9.03174L15.366 4.82936Z" fill="#FFB648"/>
<path d="M53.366 4.82936C54.503 2.74454 57.4965 2.74453 58.6335 4.82936L60.9254 9.03174C61.3569 9.82292 62.1212 10.3782 63.007 10.5441L67.7119 11.4252C70.046 11.8623 70.9711 14.7093 69.3397 16.4349L66.0512 19.9132C65.4321 20.5681 65.1401 21.4666 65.2561 22.3603L65.872 27.1072C66.1776 29.4621 63.7558 31.2217 61.6105 30.2034L57.2862 28.1507C56.4721 27.7642 55.5274 27.7642 54.7133 28.1507L50.389 30.2034C48.2437 31.2217 45.8219 29.4621 46.1275 27.1072L46.7434 22.3603C46.8594 21.4666 46.5675 20.5681 45.9483 19.9132L42.6599 16.4349C41.0284 14.7093 41.9535 11.8623 44.2876 11.4252L48.9925 10.5441C49.8783 10.3782 50.6426 9.82293 51.0741 9.03174L53.366 4.82936Z" fill="#FFB648"/>
<path d="M90.366 4.82936C91.503 2.74454 94.4965 2.74453 95.6335 4.82936L97.9254 9.03174C98.3569 9.82292 99.1212 10.3782 100.007 10.5441L104.712 11.4252C107.046 11.8623 107.971 14.7093 106.34 16.4349L103.051 19.9132C102.432 20.5681 102.14 21.4666 102.256 22.3603L102.872 27.1072C103.178 29.4621 100.756 31.2217 98.6105 30.2034L94.2862 28.1507C93.4721 27.7642 92.5274 27.7642 91.7133 28.1507L87.389 30.2034C85.2437 31.2217 82.8219 29.4621 83.1275 27.1072L83.7434 22.3603C83.8594 21.4666 83.5675 20.5681 82.9483 19.9132L79.6599 16.4349C78.0284 14.7093 78.9535 11.8623 81.2876 11.4252L85.9925 10.5441C86.8783 10.3782 87.6426 9.82293 88.0741 9.03174L90.366 4.82936Z" fill="#FFB648"/>
<path d="M128.366 4.82936C129.503 2.74454 132.497 2.74453 133.634 4.82936L135.925 9.03174C136.357 9.82292 137.121 10.3782 138.007 10.5441L142.712 11.4252C145.046 11.8623 145.971 14.7093 144.34 16.4349L141.051 19.9132C140.432 20.5681 140.14 21.4666 140.256 22.3603L140.872 27.1072C141.178 29.4621 138.756 31.2217 136.61 30.2034L132.286 28.1507C131.472 27.7642 130.527 27.7642 129.713 28.1507L125.389 30.2034C123.244 31.2217 120.822 29.4621 121.127 27.1072L121.743 22.3603C121.859 21.4666 121.567 20.5681 120.948 19.9132L117.66 16.4349C116.028 14.7093 116.953 11.8623 119.288 11.4252L123.993 10.5441C124.878 10.3782 125.643 9.82293 126.074 9.03174L128.366 4.82936Z" fill="#FFB648"/>
<path d="M164.366 4.82936C165.503 2.74454 168.497 2.74453 169.634 4.82936L171.925 9.03174C172.357 9.82292 173.121 10.3782 174.007 10.5441L178.712 11.4252C181.046 11.8623 181.971 14.7093 180.34 16.4349L177.051 19.9132C176.432 20.5681 176.14 21.4666 176.256 22.3603L176.872 27.1072C177.178 29.4621 174.756 31.2217 172.61 30.2034L168.286 28.1507C167.472 27.7642 166.527 27.7642 165.713 28.1507L161.389 30.2034C159.244 31.2217 156.822 29.4621 157.127 27.1072L157.743 22.3603C157.859 21.4666 157.567 20.5681 156.948 19.9132L153.66 16.4349C152.028 14.7093 152.953 11.8623 155.288 11.4252L159.993 10.5441C160.878 10.3782 161.643 9.82293 162.074 9.03174L164.366 4.82936Z" fill="#D7D1C7"/>
<mask id="mask0_482_1635" style="mask-type:alpha" maskUnits="userSpaceOnUse" x="152" y="3" width="30" height="28">
<path d="M164.366 4.82936C165.503 2.74454 168.497 2.74453 169.634 4.82936L171.925 9.03174C172.357 9.82292 173.121 10.3782 174.007 10.5441L178.712 11.4252C181.046 11.8623 181.971 14.7093 180.34 16.4349L177.051 19.9132C176.432 20.5681 176.14 21.4666 176.256 22.3603L176.872 27.1072C177.178 29.4621 174.756 31.2217 172.61 30.2034L168.286 28.1507C167.472 27.7642 166.527 27.7642 165.713 28.1507L161.389 30.2034C159.244 31.2217 156.822 29.4621 157.127 27.1072L157.743 22.3603C157.859 21.4666 157.567 20.5681 156.948 19.9132L153.66 16.4349C152.028 14.7093 152.953 11.8623 155.288 11.4252L159.993 10.5441C160.878 10.3782 161.643 9.82293 162.074 9.03174L164.366 4.82936Z" fill="#D7D1C7"/>
</mask>
<g mask="url(#mask0_482_1635)">
<rect x="166" y="38" width="16" height="43" transform="rotate(-180 166 38)" fill="#FFB648"/>
</g>
</svg>
